<?xml version="1.0" encoding="UTF-8" standalone="no"?>
<!-- Created with Inkscape (http://www.inkscape.org/) -->

<svg
   width="271.46201mm"
   height="64.293999mm"
   viewBox="0 0 271.46201 64.293999"
   version="1.1"
   id="svg5"
   inkscape:version="1.1.1 (3bf5ae0d25, 2021-09-20)"
   sodipodi:docname="Generations vol 2.svg"
   xmlns:inkscape="http://www.inkscape.org/namespaces/inkscape"
   xmlns:sodipodi="http://sodipodi.sourceforge.net/DTD/sodipodi-0.dtd"
   xmlns="http://www.w3.org/2000/svg"
   xmlns:svg="http://www.w3.org/2000/svg">
  <sodipodi:namedview
     id="namedview7"
     pagecolor="#505050"
     bordercolor="#eeeeee"
     borderopacity="1"
     inkscape:pageshadow="0"
     inkscape:pageopacity="0"
     inkscape:pagecheckerboard="0"
     inkscape:document-units="mm"
     showgrid="false"
     width="271.462mm"
     inkscape:zoom="0.86354933"
     inkscape:cx="512.99907"
     inkscape:cy="121.5912"
     inkscape:window-width="1366"
     inkscape:window-height="768"
     inkscape:window-x="0"
     inkscape:window-y="0"
     inkscape:window-maximized="1"
     inkscape:current-layer="layer1" />
  <defs
     id="defs2">
    <linearGradient
       id="linearGradient10237"
       inkscape:swatch="solid">
      <stop
         style="stop-color:#0000f7;stop-opacity:1;"
         offset="0"
         id="stop10235" />
    </linearGradient>
  </defs>
  <g
     inkscape:label="Layer 1"
     inkscape:groupmode="layer"
     id="layer1">
    <path
       style="fill:#fbd209;fill-opacity:1;stroke:none;stroke-width:0.264583px;stroke-linecap:butt;stroke-linejoin:miter;stroke-opacity:1"
       d="m 26.061734,23.075032 v -8.476025 c 0,0 -0.379748,-9.2499515 -10.942928,-9.1085636 C 6.5160993,5.6055904 4.3591191,10.803323 4.3656398,14.409245 l 0.063254,34.979416 c 0,0 0,9.867611 10.1206272,10.120627 10.120626,0.253016 11.512213,-8.476025 11.512213,-8.476025 V 28.51487 H 15.561583 v 7.084438 h 2.783172 v 14.042369 c 0,0 0.126508,2.150633 -3.162695,2.150633 -3.289204,0 -3.162696,-2.530157 -3.162696,-2.530157 v -34.41013 c 0,0 -0.379524,-2.150634 3.036188,-2.150634 3.415711,0 3.289203,2.150634 3.289203,2.150634 v 8.602533 h 7.716979 z"
       id="path72"
       sodipodi:nodetypes="ccsscsccccccsccscccc" />
    <path
       style="fill:#fbd209;fill-opacity:1;stroke:none;stroke-width:0.264583px;stroke-linecap:butt;stroke-linejoin:miter;stroke-opacity:1"
       d="M 50.120005,15.294933 H 32.050186 v 43.26471 H 50.007081 V 52.278736 H 39.060356 V 39.896377 h 9.869998 V 33.735104 H 39.239812 V 21.419927 h 10.963682 v -6.119124 z"
       id="path3190" />
    <path
       style="fill:#fbd209;fill-opacity:1;stroke:none;stroke-width:0.264583px;stroke-linecap:butt;stroke-linejoin:miter;stroke-opacity:1"
       d="m 55.50185,15.498249 v 42.62209 h 6.845612 v -22.9817 l 6.266971,23.388653 h 7.342761 V 15.253762 H 69.356068 V 39.53939 l -6.51146,-24.301088 h -7.261264 z"
       id="path3225" />
    <path
       style="fill:#fbd209;fill-opacity:1;stroke:none;stroke-width:0.264583px;stroke-linecap:butt;stroke-linejoin:miter;stroke-opacity:1"
       d="M 100.39088,15.294933 H 82.321051 v 43.26471 H 100.27795 V 52.278736 H 89.331221 V 39.896377 h 9.869998 V 33.735104 H 89.510677 V 21.419927 h 10.963693 v -6.119124 z"
       id="path3340" />
    <path
       id="path3375"
       style="fill:#fbd209;fill-opacity:1;stroke:none;stroke-width:0.264583px;stroke-linecap:butt;stroke-linejoin:miter;stroke-opacity:1"
       d="m 109.18915,15.214956 c -2.74173,8.47e-4 -3.50315,0.02739 -3.50315,0.02739 v 43.14827 h 7.12928 V 39.836192 h 0.92759 l 6.26215,18.476907 h 7.7308 L 119.85051,38.52206 c 0,0 5.33404,-1.855351 5.33404,-6.571176 0,-4.715822 0.0775,-8.890412 0.0775,-8.890412 0,0 0.15458,-7.731001 -8.7359,-7.808309 -3.33394,-0.02899 -5.69199,-0.03771 -7.33702,-0.03721 z m 6.64145,6.144844 c 1.60973,0 2.72245,1.474838 2.55075,1.932699 v 8.804631 c 0,0.509905 -1.25972,1.618832 -1.85518,1.631942 -1.43999,0.03171 -3.63337,0 -3.63337,0 V 21.514313 c 0,0 -0.0772,-0.154513 2.9378,-0.154513 z" />
    <path
       id="path4881"
       style="fill:#fbd209;fill-opacity:1;stroke:none;stroke-width:0.264583px;stroke-linecap:butt;stroke-linejoin:miter;stroke-opacity:1"
       d="m 136.85929,15.412877 -7.37474,42.813407 h 6.85591 l 1.70481,-8.931238 h 7.04814 l 1.46865,8.901266 h 6.85229 L 146.1781,15.412877 Z m 4.62091,10.433988 2.75074,17.179313 h -5.50096 z" />
    <path
       style="fill:#fbd209;fill-opacity:1;stroke:none;stroke-width:0.264583px;stroke-linecap:butt;stroke-linejoin:miter;stroke-opacity:1"
       d="m 154.83824,15.40157 v 5.782654 h 6.34551 v 37.0055 h 7.10299 V 21.316729 h 6.44233 v -6.064363 h -19.94045 z"
       id="path5035" />
    <path
       style="fill:#fbd209;fill-opacity:1;stroke:none;stroke-width:0.264583px;stroke-linecap:butt;stroke-linejoin:miter;stroke-opacity:1"
       d="m 179.77515,15.395801 h 6.54888 v 42.754611 h -6.85882 V 15.399645 Z"
       id="path5070" />
    <path
       id="path5105"
       style="fill:#fbd209;fill-opacity:1;stroke:none;stroke-width:0.264583px;stroke-linecap:butt;stroke-linejoin:miter;stroke-opacity:1"
       d="m 201.97056,14.819115 c -1.84464,0.02282 -9.22321,0.55402 -9.22321,7.592301 v 28.718143 c 0,0 -0.86347,7.86257 9.72189,7.86257 10.58536,0 10.31306,-8.066691 10.31306,-8.066691 V 22.544741 c 0,0 -0.18354,-7.722009 -10.39781,-7.722009 0,0 -0.15041,-0.0069 -0.41393,-0.0036 z m 0.13953,5.909716 c 0.2832,0 0.4718,0.03772 0.4718,0.03772 3.59656,0 3.1533,2.019515 3.1533,2.019515 v 28.128515 c 0,0 0.13278,2.161108 -2.99258,2.161108 -3.12538,0 -3.1812,-2.327505 -3.1812,-2.327505 V 23.787559 c 0,-2.718677 1.69909,-3.058728 2.54868,-3.058728 z" />
    <path
       style="fill:#fbd209;fill-opacity:1;stroke:none;stroke-width:0.264583px;stroke-linecap:butt;stroke-linejoin:miter;stroke-opacity:1"
       d="m 218.48596,15.498249 v 42.62209 h 6.84565 v -22.9817 l 6.26701,23.388653 h 7.3428 v -43.27353 h -6.60116 V 39.53939 l -6.5115,-24.301088 h -7.2613 z"
       id="path5241" />
    <path
       style="opacity:0.990521;fill:#ffffff;fill-opacity:1;stroke:none;stroke-width:0.264583px;stroke-linecap:butt;stroke-linejoin:miter;stroke-opacity:1"
       d="M 266.5754,23.064143 V 13.9115 c 0,0 0.33917,-8.4875416 -10.77181,-8.4875416 -11.11096,0 -10.59657,9.3105756 -10.59657,9.3105756 l 0.18952,8.950499 c 1.49004,4.304474 3.51635,7.924816 8.62909,11.021725 2.37376,2.147837 5.20818,4.636801 5.23061,6.784638 v 8.338664 c 0,0 0,1.895149 -3.41127,1.895149 -3.41128,0 -3.10805,-2.425792 -3.10805,-2.425792 v -7.732215 h -7.5806 v 9.17253 c 0,0 0.30322,8.262855 10.61284,8.262855 10.30962,0 10.84026,-8.262855 10.84026,-8.262855 l -0.0758,-9.399949 c 0.0478,-3.595715 -1.65435,-7.818545 -7.08786,-11.825738 -3.3841,-2.737092 -4.80285,-3.415884 -6.86044,-6.860446 v -8.149147 c 0,0 0.27674,-1.852436 3.20851,-1.852436 2.93177,0 3.46242,1.928242 3.46242,1.928242 v 8.566081 z"
       id="path5276"
       sodipodi:nodetypes="ccscccccsccccscccccsccc" />
  </g>
</svg>
